<svg width="60" height="60" viewBox="0 0 60 60" fill="none" xmlns="http://www.w3.org/2000/svg">
<g clip-path="url(#clip0_11_21)">
<rect width="60" height="60" fill="black"/>
<path d="M13.125 26.25H46.875V18.75C46.875 17.7554 46.4799 16.8016 45.7766 16.0984C45.0733 15.3951 44.1195 15 43.125 15H16.875C15.8804 15 14.9266 15.3951 14.2234 16.0984C13.5201 16.8016 13.125 17.7554 13.125 18.75V45C13.125 45.9945 13.5201 46.9483 14.2234 47.6516C14.9266 48.3549 15.8804 48.75 16.875 48.75H30M22.5 11.25V18.75M37.5 11.25V18.75M47.4188 35.0625C46.7799 34.4267 45.9667 33.9947 45.0823 33.8213C44.1979 33.6476 43.2817 33.7403 42.45 34.0875C41.8875 34.3125 41.3813 34.65 40.95 35.0812L40.3125 35.7187L39.6562 35.0812C39.0195 34.4424 38.2073 34.0069 37.3228 33.8299C36.4382 33.6531 35.5211 33.7427 34.6875 34.0875C34.125 34.3125 33.6375 34.65 33.2062 35.0812C31.425 36.8437 31.3312 39.825 33.5812 42.0938L40.3125 48.75L47.0625 42.0938C49.3125 39.825 49.2 36.8437 47.4188 35.0812V35.0625Z" stroke="url(#paint0_linear_11_21)" stroke-width="3" stroke-linecap="round" stroke-linejoin="round"/>
</g>
<defs>
<linearGradient id="paint0_linear_11_21" x1="30.9394" y1="11.25" x2="30.9394" y2="48.75" gradientUnits="userSpaceOnUse">
<stop stop-color="#B3B3B3"/>
<stop offset="1" stop-color="#9A9A9A"/>
</linearGradient>
<clipPath id="clip0_11_21">
<rect width="60" height="60" fill="white"/>
</clipPath>
</defs>
</svg>
